<svg width="12" height="12" viewBox="0 0 12 12" fill="none" xmlns="http://www.w3.org/2000/svg">
<g clip-path="url(#clip0_2083_2477)">
<path d="M11.833 2.7373L7.67463 6.89572C7.21096 7.35822 6.58279 7.61795 5.92788 7.61795C5.27298 7.61795 4.64481 7.35822 4.18113 6.89572L0.0227236 2.7373C0.0158077 2.81536 0 2.886 0 2.96355V8.89144C0.000784386 9.54627 0.261263 10.1741 0.724299 10.6371C1.18733 11.1001 1.81512 11.3606 2.46995 11.3614H9.38582C10.0406 11.3606 10.6684 11.1001 11.1315 10.6371C11.5945 10.1741 11.855 9.54627 11.8558 8.89144V2.96355C11.8558 2.886 11.84 2.81536 11.833 2.7373Z" fill="black"/>
<path d="M6.97579 6.19775L11.4879 1.68515C11.2693 1.32272 10.961 1.02273 10.5928 0.814113C10.2245 0.605497 9.80872 0.495297 9.38548 0.494141H2.46961C2.04637 0.495297 1.63057 0.605497 1.26231 0.814113C0.894054 1.02273 0.585768 1.32272 0.367188 1.68515L4.8793 6.19775C5.15769 6.47504 5.53462 6.63072 5.92754 6.63072C6.32047 6.63072 6.69739 6.47504 6.97579 6.19775Z" fill="black"/>
</g>
<defs>
<clipPath id="clip0_2083_2477">
<rect width="11.8558" height="11.8558" fill="white"/>
</clipPath>
</defs>
</svg>
