<svg width="16" height="16" viewBox="0 0 16 16" fill="none" xmlns="http://www.w3.org/2000/svg">
<path d="M7.99541 0C3.57954 0 0 3.5816 0 8C0 12.4184 3.57954 16 7.99541 16C12.0571 16 15.4663 12.9536 15.9412 8.95039C15.9924 8.51119 15.6798 8.10241 15.2408 8.04961C14.8027 7.99841 14.3933 8.31119 14.3422 8.75039C13.9624 11.9504 11.2447 14.4 7.99541 14.4C4.46304 14.4 1.59908 11.5344 1.59908 8C1.59908 4.4656 4.46304 1.6 7.99541 1.6C8.73338 1.6 9.46416 1.7336 10.1446 1.9752C10.5603 2.1224 10.9961 1.8912 11.144 1.4752C11.2911 1.0584 11.0848 0.597609 10.6691 0.449609C9.81835 0.148009 8.91568 0 7.99541 0ZM15.1913 1.6C14.9866 1.6 14.7723 1.672 14.6164 1.8248L11.1308 5.2624L7.6452 8.7C7.43972 8.9024 7.23264 8.8632 7.07113 8.6248L6.27159 7.44961C6.02693 7.08881 5.51363 6.984 5.14744 7.2248C4.78046 7.4656 4.67732 7.96401 4.92198 8.32481L5.72152 9.5C6.4419 10.5632 7.85148 10.704 8.77015 9.8L15.7661 2.95039C16.078 2.64319 16.078 2.132 15.7661 1.8248C15.6102 1.6712 15.396 1.6 15.1913 1.6Z" fill="#0034C4"/>
</svg>
